<svg width="103" height="30" viewBox="0 0 103 30" fill="none" xmlns="http://www.w3.org/2000/svg">
<path d="M31.3277 0H29.2776V29.7918H31.3277V0Z" fill="#ED145B"/>
<path d="M17.6017 14.2625H7.62366V16.3099H17.6017V14.2625Z" fill="#ED145B"/>
<path d="M0 0V29.7918H2.05007V2.04743H23.2235V0H0Z" fill="#ED145B"/>
<path d="M92.7656 0.121489H76.4932V29.9133H78.5432V18.8086H78.5593V16.7612H78.5432V2.16891H92.6215C97.5704 2.16891 100.95 4.63277 100.95 9.35226V9.43901C100.95 13.8635 97.4904 16.7612 92.3812 16.7612H85.9427V18.8086H92.2691C98.0029 18.8086 103 15.5813 103 9.31755V9.2308C102.968 3.47025 98.8037 0.121489 92.7656 0.121489Z" fill="#ED145B"/>
<path d="M64.5932 16.7611L55.0636 0H53.0936L36.1165 30H38.2306L54.0385 2.42915L62.2869 16.7611H64.5932Z" fill="#ED145B"/>
<path d="M67.7324 22.2614H65.4581L69.8946 30H72.1369L67.7324 22.2614Z" fill="#ED145B"/>
</svg>
